<?xml version="1.0" encoding="UTF-8" standalone="no"?>
<svg
   id="Layer_1"
   data-name="Layer 1"
   width="178.617"
   height="41.620037"
   viewBox="0 0 178.617 41.620037"
   version="1.1"
   sodipodi:docname="315949ff623122869508aabcd20d62f0.svg"
   xmlns:inkscape="http://www.inkscape.org/namespaces/inkscape"
   xmlns:sodipodi="http://sodipodi.sourceforge.net/DTD/sodipodi-0.dtd"
   xmlns="http://www.w3.org/2000/svg"
   xmlns:svg="http://www.w3.org/2000/svg">
  <sodipodi:namedview
     id="namedview37"
     pagecolor="#ffffff"
     bordercolor="#666666"
     borderopacity="1.0"
     inkscape:pageshadow="2"
     inkscape:pageopacity="0.0"
     inkscape:pagecheckerboard="0" />
  <defs
     id="defs4">
    <style
       id="style2">.cls-1{fill:#c42033;}.cls-2{fill:#174980;}</style>
  </defs>
  <path
     class="cls-1"
     d="m 7.6,7.2200371 c 0.8,-4.4 4,-7.50000004 7.5,-7.20000004 3.2,0.2 6.3,3.60000004 6.6,7.20000004 -0.6,0.2 -0.9,0.1 -1.1,-0.7 -1,-3.2 -3.3,-5.2 -5.8,-5.3 -2.6,0 -4.9,2 -5.9,5.3 -0.4,0.8 -0.7,0.9 -1.3,0.7 z"
     id="path6" />
  <polygon
     class="cls-2"
     points="11.9,19.6 23.1,19.6 23.1,11.9 32,8.4 32,18.9 29.7,18.9 26.5,27.5 7.4,27.5 9.9,36.8 3.2,39 3.3,8.4 11.9,11.8 "
     id="polygon8"
     transform="translate(-3.2,-1.1799629)" />
  <path
     class="cls-2"
     d="m 28.8,18.920037 h -1.4 l -5.4,16.7 6.8,2.2 z"
     id="path10" />
  <circle
     class="cls-1"
     cx="8.5"
     cy="39.820038"
     r="1.8"
     id="circle12" />
  <circle
     class="cls-1"
     cx="20.199999"
     cy="39.820038"
     r="1.8"
     id="circle14" />
  <path
     class="cls-2"
     d="m 51.4,30.520037 h -2.3 v -8.9 H 39 v 8.9 h -2.3 v -19.4 H 39 v 8.5 h 10.1 v -8.5 h 2.3 z"
     id="path16" />
  <path
     class="cls-2"
     d="m 65.1,30.520037 h -2.2 v -2.2 h -0.1 a 4.5511,4.5511 0 0 1 -4.3,2.5 4.2012,4.2012 0 0 1 -3.2,-1.1 4.005,4.005 0 0 1 -1.2,-2.9 c 0,-2.6 1.5,-4.1 4.6,-4.5 l 4.2,-0.6 c 0,-2.4 -1,-3.5 -2.9,-3.5 a 6.6225,6.6225 0 0 0 -4.5,1.7 v -2.3 a 8.7812,8.7812 0 0 1 4.7,-1.3 c 3.3,0 4.9,1.7 4.9,5.2 z m -2.2,-7 -3.3,0.5 a 4.89,4.89 0 0 0 -2.3,0.8 2.0939,2.0939 0 0 0 -0.8,1.9 2.342,2.342 0 0 0 0.7,1.7 2.5644,2.5644 0 0 0 1.9,0.6 3.5713,3.5713 0 0 0 2.7,-1.2 4.5555,4.5555 0 0 0 1.1,-2.9 z"
     id="path18" />
  <path
     class="cls-2"
     d="m 88.1,30.520037 h -2.2 v -8 a 6.1525,6.1525 0 0 0 -0.7,-3.3 3.0915,3.0915 0 0 0 -4.8,0.3 4.997,4.997 0 0 0 -1,3.1 v 7.9 h -2.2 v -8.2 c 0,-2.7 -1.1,-4.1 -3.2,-4.1 a 2.73,2.73 0 0 0 -2.4,1.2 4.623,4.623 0 0 0 -0.9,3.2 v 7.9 h -2.2 v -13.9 h 2.2 v 2.2 h 0.1 a 4.5511,4.5511 0 0 1 4.3,-2.5 3.9625,3.9625 0 0 1 3.9,2.9 4.963,4.963 0 0 1 4.6,-2.9 c 3.1,0 4.6,1.9 4.6,5.7 z"
     id="path20" />
  <path
     class="cls-2"
     d="m 101,17.320037 -8.2,11.3 h 8.1 v 1.9 H 89.5 v -0.7 l 8.2,-11.3 h -7.4 v -1.9 H 101 Z"
     id="path22" />
  <path
     class="cls-2"
     d="m 112.8,30.520037 h -2.2 v -2.2 h -0.1 a 4.5511,4.5511 0 0 1 -4.3,2.5 4.2012,4.2012 0 0 1 -3.2,-1.1 4.005,4.005 0 0 1 -1.2,-2.9 c 0,-2.6 1.5,-4.1 4.6,-4.5 l 4.2,-0.6 c 0,-2.4 -1,-3.5 -2.9,-3.5 a 6.6225,6.6225 0 0 0 -4.5,1.7 v -2.3 a 8.7812,8.7812 0 0 1 4.7,-1.3 c 3.3,0 4.9,1.7 4.9,5.2 z m -2.2,-7 -3.3,0.5 a 4.89,4.89 0 0 0 -2.3,0.8 2.0939,2.0939 0 0 0 -0.8,1.9 2.342,2.342 0 0 0 0.7,1.7 2.5644,2.5644 0 0 0 1.9,0.6 3.5713,3.5713 0 0 0 2.7,-1.2 4.5555,4.5555 0 0 0 1.1,-2.9 z"
     id="path24" />
  <path
     class="cls-2"
     d="m 122.1,29.720037 v -2.7 a 4.1293,4.1293 0 0 0 1.1,0.7 5.7825,5.7825 0 0 0 1.4,0.5 7.006,7.006 0 0 0 1.4,0.3 5.702,5.702 0 0 0 1.3,0.1 4.8311,4.8311 0 0 0 3.1,-0.8 2.9211,2.9211 0 0 0 0.7,-3.6 5.2413,5.2413 0 0 0 -1,-1.1 5.507,5.507 0 0 0 -1.4,-0.9 l -1.8,-0.9 c -0.7,-0.3 -1.3,-0.7 -1.9,-1 a 4.4275,4.4275 0 0 1 -1.5,-1.2 4.5076,4.5076 0 0 1 -1,-1.4 4.7661,4.7661 0 0 1 0.2,-4.2 5.7245,5.7245 0 0 1 1.5,-1.6 6.0277,6.0277 0 0 1 2.2,-0.9 10.0745,10.0745 0 0 1 2.5,-0.3 8.6814,8.6814 0 0 1 4.2,0.7 v 2.6 a 7.7053,7.7053 0 0 0 -5.9,-1 5.0234,5.0234 0 0 0 -1.3,0.5 1.9622,1.9622 0 0 0 -0.9,0.9 2.2959,2.2959 0 0 0 -0.4,1.4 3.0793,3.0793 0 0 0 0.3,1.3 3.9153,3.9153 0 0 0 0.8,1 c 0.4,0.3 0.9,0.6 1.3,0.9 a 15.0433,15.0433 0 0 0 1.8,0.9 12.81,12.81 0 0 1 2,1.1 10.0969,10.0969 0 0 1 1.6,1.3 5.2726,5.2726 0 0 1 1.1,1.5 4.3334,4.3334 0 0 1 0.4,1.9 5.025,5.025 0 0 1 -0.6,2.4 4.6291,4.6291 0 0 1 -1.5,1.6 8.488,8.488 0 0 1 -2.2,0.9 11.5292,11.5292 0 0 1 -2.6,0.3 3.75,3.75 0 0 1 -1.1,-0.1 6.7525,6.7525 0 0 1 -1.4,-0.2 4.9508,4.9508 0 0 1 -1.3,-0.4 2.8119,2.8119 0 0 1 -1.1,-0.5 z"
     id="path26" />
  <path
     class="cls-2"
     d="m 142,30.420037 a 3.7775,3.7775 0 0 1 -2.1,0.4 c -2.4,0 -3.6,-1.4 -3.6,-4.1 v -8.2 h -2.4 v -1.9 h 2.4 v -3.4 l 2.2,-0.7 v 4.1 h 3.5 v 1.9 h -3.5 v 7.8 a 2.8768,2.8768 0 0 0 0.5,2 1.9088,1.9088 0 0 0 1.6,0.6 2.26,2.26 0 0 0 1.5,-0.5 z"
     id="path28" />
  <path
     class="cls-2"
     d="m 149.6,30.920037 a 6.4738,6.4738 0 0 1 -4.9,-1.9 7.0685,7.0685 0 0 1 -1.8,-5.2 7.8713,7.8713 0 0 1 1.9,-5.5 7.0828,7.0828 0 0 1 5.2,-2 6.12,6.12 0 0 1 4.8,1.9 7.3686,7.3686 0 0 1 1.7,5.3 7.2342,7.2342 0 0 1 -1.9,5.3 6.7219,6.7219 0 0 1 -5,2.1 z m 0.2,-12.7 a 4.16,4.16 0 0 0 -3.4,1.5 5.7639,5.7639 0 0 0 -1.2,4 5.5937,5.5937 0 0 0 1.3,3.9 4.0726,4.0726 0 0 0 3.4,1.4 3.7724,3.7724 0 0 0 3.3,-1.4 6.3082,6.3082 0 0 0 1.2,-4 5.7639,5.7639 0 0 0 -1.2,-4 4.1925,4.1925 0 0 0 -3.4,-1.4 z"
     id="path30" />
  <path
     class="cls-2"
     d="m 166.3,18.920037 a 2.5433,2.5433 0 0 0 -1.7,-0.4 2.8134,2.8134 0 0 0 -2.4,1.3 6.8632,6.8632 0 0 0 -1,3.7 v 7.1 H 159 v -14 h 2.2 v 2.9 h 0.1 a 5.1307,5.1307 0 0 1 1.5,-2.3 3.4946,3.4946 0 0 1 2.2,-0.8 2.7448,2.7448 0 0 1 1.3,0.2 z"
     id="path32" />
  <path
     class="cls-2"
     d="m 178.6,24.120037 h -9.8 a 5.2375,5.2375 0 0 0 1.2,3.6 4.6037,4.6037 0 0 0 3.3,1.3 6.6267,6.6267 0 0 0 4.3,-1.5 v 2.1 a 8.0941,8.0941 0 0 1 -4.8,1.3 5.8384,5.8384 0 0 1 -4.6,-1.9 7.8478,7.8478 0 0 1 -1.7,-5.3 7.936,7.936 0 0 1 1.8,-5.3 5.658,5.658 0 0 1 4.6,-2 5.1311,5.1311 0 0 1 4.2,1.8 7.1592,7.1592 0 0 1 1.5,4.9 z m -2.3,-1.8 a 4.6285,4.6285 0 0 0 -0.9,-3 3.4081,3.4081 0 0 0 -2.5,-1.1 3.8637,3.8637 0 0 0 -2.7,1.1 5.2791,5.2791 0 0 0 -1.4,2.9 z"
     id="path34" />
</svg>
