
<svg width="54px" height="38px" viewBox="0 0 54 38" version="1.1" xmlns="http://www.w3.org/2000/svg" xmlns:xlink="http://www.w3.org/1999/xlink">
    <!-- Generator: Sketch 51.3 (57544) - http://www.bohemiancoding.com/sketch -->
    <desc>Created with Sketch.</desc>
    <defs></defs>
    <g id="PAGE_Assortment" stroke="none" stroke-width="1" fill="none" fill-rule="evenodd" stroke-linecap="round" stroke-linejoin="round">
        <g id="PAGE_Assortment-overview-(Meat-&amp;-Poultry)" transform="translate(-771.000000, -5060.000000)" stroke="#0064FE" stroke-width="1.5">
            <g id="Group-41-Copy" transform="translate(0.000000, 4622.000000)">
                <g id="Group-40" transform="translate(0.000000, 320.000000)">
                    <g id="Group-772-Copy" transform="translate(772.000000, 119.000000)">
                        <path d="M14.75,31.4117647 C14.75,33.8795294 12.734,35.8823529 10.25,35.8823529 C7.7615,35.8823529 5.75,33.8795294 5.75,31.4117647 C5.75,28.944 7.7615,26.9411765 10.25,26.9411765 C12.734,26.9411765 14.75,28.944 14.75,31.4117647 L14.75,31.4117647 Z" id="Stroke-1103"></path>
                        <path d="M46.25,31.4117647 C46.25,33.8795294 44.234,35.8823529 41.75,35.8823529 C39.2615,35.8823529 37.25,33.8795294 37.25,31.4117647 C37.25,28.944 39.2615,26.9411765 41.75,26.9411765 C44.234,26.9411765 46.25,28.944 46.25,31.4117647 L46.25,31.4117647 Z" id="Stroke-1104"></path>
                        <polyline id="Stroke-1105" points="5.75 31.4117647 0.125 31.4117647 0.125 19.1176471 4.625 14.6470588 10.25 4.58823529 20.375 4.58823529 20.375 0.117647059 51.875 0.117647059 51.875 31.4117647 46.25 31.4117647"></polyline>
                        <path d="M14.75,31.4117647 L37.25,31.4117647" id="Stroke-1106"></path>
                        <polyline id="Stroke-1107" points="15.875 9.05882353 12.5 9.05882353 9.125 15.7647059"></polyline>
                        <path d="M20.375,4.58823529 L20.375,26.9411765" id="Stroke-1108"></path>
                        <path d="M0.125,26.9411765 L51.875,26.9411765" id="Stroke-1109"></path>
                    </g>
                </g>
            </g>
        </g>
    </g>
</svg>