

<svg width="59px" height="51px" viewBox="0 0 59 51" version="1.1" xmlns="http://www.w3.org/2000/svg" xmlns:xlink="http://www.w3.org/1999/xlink">

    <!-- Generator: Sketch 51.3 (57544) - http://www.bohemiancoding.com/sketch -->

    <desc>Created with Sketch.</desc>
    <defs></defs>
    <g id="PAGE_Assortment" stroke="none" stroke-width="1" fill="none" fill-rule="evenodd" stroke-linecap="round" stroke-linejoin="round">
        <g id="PAGE_Assortment-overview-(Meat-&amp;-Poultry)" transform="translate(-566.000000, -5053.000000)" stroke="#0064FE" stroke-width="1.5">
            <g id="Group-41-Copy" transform="translate(0.000000, 4622.000000)">
                <g id="Group-40" transform="translate(0.000000, 320.000000)">
                    <g id="Group-1062" transform="translate(567.000000, 112.000000)">
                        <path d="M0.137019231,11.1389068 C0.137019231,13.2397267 1.79440385,14.9401491 3.83653846,14.9401491 C5.87867308,14.9401491 7.53605769,13.2397267 7.53605769,11.1389068 C7.53605769,9.04062112 5.87867308,7.3376646 3.83653846,7.3376646 C1.79440385,7.3376646 0.137019231,9.04062112 0.137019231,11.1389068 L0.137019231,11.1389068 Z" id="Stroke-235"></path>
                        <path d="M49.4639423,11.3517764 C49.4639423,13.4500621 51.1213269,15.1530186 53.1634615,15.1530186 C55.2055962,15.1530186 56.8629808,13.4500621 56.8629808,11.3517764 C56.8629808,9.25095652 55.2055962,7.55053416 53.1634615,7.55053416 C51.1213269,7.55053416 49.4639423,9.25095652 49.4639423,11.3517764 L49.4639423,11.3517764 Z" id="Stroke-236"></path>
                        <path d="M8.76923077,48.3074534 L48.2307692,48.3074534" id="Stroke-237"></path>
                        <path d="M8.76923077,43.2391304 L3.72062019,14.9274783 C3.72062019,14.9274783 6.30288462,28.0341615 16.1682692,28.0341615 C26.0336538,28.0341615 28.5,10.2950311 28.5,10.2950311 C28.5,10.2950311 30.9663462,28.0341615 40.8317308,28.0341615 C50.6971154,28.0341615 53.2793798,15.127677 53.2793798,15.127677 L48.2307692,43.2391304 L8.76923077,43.2391304 L8.76923077,43.2391304 Z" id="Stroke-238"></path>
                        <path d="M33.4326923,5.22670807 C33.4326923,8.02442236 31.2228462,10.2950311 28.5,10.2950311 C25.7771538,10.2950311 23.5673077,8.02442236 23.5673077,5.22670807 C23.5673077,2.42899379 25.7771538,0.158385093 28.5,0.158385093 C31.2228462,0.158385093 33.4326923,2.42899379 33.4326923,5.22670807 L33.4326923,5.22670807 Z" id="Stroke-239"></path>
                    </g>
                </g>
            </g>
        </g>
    </g>
</svg>