<svg width="13px" height="23px" viewBox="0 0 13 23" version="1.1" xmlns="http://www.w3.org/2000/svg" xmlns:xlink="http://www.w3.org/1999/xlink">
    <!-- Generator: Sketch 50.2 (55047) - http://www.bohemiancoding.com/sketch -->
    <desc>Created with Sketch.</desc>
    <defs></defs>
    <g id="FOOTER" stroke="none" stroke-width="1" fill="none" fill-rule="evenodd">
        <path d="M12.525,6.6165 C12.6675,6.77475 12.7365,6.98475 12.714,7.19625 L12.333,10.85475 C12.2925,11.2365 11.97075,11.52675 11.58675,11.52675 L8.8155,11.52675 L8.8155,21.75 C8.8155,22.164 8.4795,22.5 8.0655,22.5 L3.4935,22.5 C3.0795,22.5 2.7435,22.164 2.7435,21.75 L2.7435,11.52675 L0.75,11.52675 C0.336,11.52675 0,11.19075 0,10.77675 L0,7.119 C0,6.70425 0.336,6.369 0.75,6.369 L2.7435,6.369 L2.7435,5.157 C2.7435,3.94725 3.10575,0 7.76475,0 L11.7255,0.012 C12.13875,0.01275 12.47325,0.34875 12.47325,0.762 L12.47325,4.3665 C12.47325,4.7805 12.13725,5.1165 11.72325,5.1165 L8.991,5.1165 C8.8665,5.1165 8.8155,5.1165 8.8155,5.37675 L8.8155,6.369 L11.9685,6.369 C12.18075,6.369 12.38325,6.459 12.525,6.6165 Z M10.911,10.02675 L11.136,7.869 L8.0655,7.869 C7.6515,7.869 7.3155,7.533 7.3155,7.119 L7.3155,5.37675 C7.3155,4.16025 8.157,3.6165 8.991,3.6165 L10.97325,3.6165 L10.97325,1.50975 L7.7625,1.5 C4.854,1.5 4.2435,3.489 4.2435,5.157 L4.2435,7.119 C4.2435,7.533 3.9075,7.869 3.4935,7.869 L1.5,7.869 L1.5,10.02675 L3.4935,10.02675 C3.9075,10.02675 4.2435,10.36275 4.2435,10.77675 L4.2435,21 L7.3155,21 L7.3155,10.77675 C7.3155,10.36275 7.6515,10.02675 8.0655,10.02675 L10.911,10.02675 Z" id="facebook" fill="#0064FE"></path>
    </g>
</svg>