<?xml version="1.0" encoding="UTF-8"?>
<svg width="24px" height="24px" viewBox="0 0 24 24" version="1.1" xmlns="http://www.w3.org/2000/svg" xmlns:xlink="http://www.w3.org/1999/xlink">
    <title>Icon / medium / social-instagram Copy 3</title>
    <g id="Icon-/-medium-/-social-instagram-Copy-3" stroke="none" stroke-width="1" fill="none" fill-rule="evenodd">
        <rect id="fill" x="0" y="0" width="24" height="24"></rect>
        <path d="M9.40311255,1.5 L14.5968875,1.5 C17.3933653,1.5 18.4179766,1.76466129 19.4431551,2.31293277 C20.4105205,2.83028545 21.1697145,3.58947949 21.6870672,4.55684489 C22.2353387,5.58202344 22.5,6.60663472 22.5,9.40311255 L22.5,14.5968875 C22.5,17.3933653 22.2353387,18.4179766 21.6870672,19.4431551 C21.1697145,20.4105205 20.4105205,21.1697145 19.4431551,21.6870672 C18.4179766,22.2353387 17.3933653,22.5 14.5968875,22.5 L9.40311255,22.5 C6.60663472,22.5 5.58202344,22.2353387 4.55684489,21.6870672 C3.58947949,21.1697145 2.83028545,20.4105205 2.31293277,19.4431551 C1.76466129,18.4179766 1.5,17.3933653 1.5,14.5968875 L1.5,9.40311255 C1.5,6.60663472 1.76466129,5.58202344 2.31293277,4.55684489 C2.83028545,3.58947949 3.58947949,2.83028545 4.55684489,2.31293277 C5.58202344,1.76466129 6.60663472,1.5 9.40311255,1.5 Z" id="Rectangle" stroke="#0064FE" stroke-width="1.5"></path>
        <path d="M12,6.75 C13.4497475,6.75 14.7622475,7.33762627 15.7123106,8.2876894 C16.6623737,9.23775253 17.25,10.5502525 17.25,12 C17.25,13.4497475 16.6623737,14.7622475 15.7123106,15.7123106 C14.7622475,16.6623737 13.4497475,17.25 12,17.25 C10.5502525,17.25 9.23775253,16.6623737 8.2876894,15.7123106 C7.33762627,14.7622475 6.75,13.4497475 6.75,12 C6.75,10.5502525 7.33762627,9.23775253 8.2876894,8.2876894 C9.23775253,7.33762627 10.5502525,6.75 12,6.75 Z" id="Rectangle-Copy" stroke="#0064FE" stroke-width="1.5"></path>
        <path d="M17.7897524,5.41475244 C18.3428301,5.25 18.4834551,5.31295996 18.5852476,5.41475244 C18.68704,5.51654491 18.75,5.65716991 18.75,5.8125 C18.75,5.96783009 18.68704,6.10845509 18.5852476,6.21024756 C18.4834551,6.31204004 18.3428301,6.375 18.1875,6.375 C18.0321699,6.375 17.8915449,6.31204004 17.7897524,6.21024756 C17.68796,6.10845509 17.625,5.96783009 17.625,5.8125 C17.625,5.65716991 17.68796,5.51654491 17.7897524,5.41475244 Z" id="Rectangle-Copy-2" stroke="#0064FE" stroke-width="1.5" fill="#0064FE"></path>
    </g>
</svg>