
<svg width="55px" height="48px" viewBox="0 0 55 48" version="1.1" xmlns="http://www.w3.org/2000/svg" xmlns:xlink="http://www.w3.org/1999/xlink">
    <!-- Generator: Sketch 51.3 (57544) - http://www.bohemiancoding.com/sketch -->
    <desc>Created with Sketch.</desc>
    <defs></defs>
    <g id="PAGE_Assortment" stroke="none" stroke-width="1" fill="none" fill-rule="evenodd" stroke-linecap="round" stroke-linejoin="round">
        <g id="PAGE_Assortment-overview-(Meat-&amp;-Poultry)" transform="translate(-975.000000, -5055.000000)" stroke="#0064FE" stroke-width="1.5">
            <g id="Group-41-Copy" transform="translate(0.000000, 4622.000000)">
                <g id="Group-40" transform="translate(0.000000, 320.000000)">
                    <g id="Group-225" transform="translate(976.000000, 114.000000)">
                        <path d="M52.6214286,32.0491803 C52.6214286,39.5486885 46.5226429,45.6229508 38.9928571,45.6229508 C31.4630714,45.6229508 25.3642857,39.5486885 25.3642857,32.0491803 C25.3642857,24.5519344 31.4630714,18.4754098 38.9928571,18.4754098 C46.5226429,18.4754098 52.6214286,24.5519344 52.6214286,32.0491803 L52.6214286,32.0491803 Z" id="Stroke-1476"></path>
                        <polyline id="Stroke-1477" points="45.8071429 27.5245902 36.7214286 36.5737705 32.1785714 32.0491803"></polyline>
                        <path d="M20.8214286,32.0491803 L3.78571429,32.0491803 C1.90497143,32.0491803 0.378571429,30.5266557 0.378571429,28.6557377 L0.378571429,3.7704918 C0.378571429,1.89504918 1.90497143,0.37704918 3.78571429,0.37704918 L44.6714286,0.37704918 C46.5521714,0.37704918 48.0785714,1.89504918 48.0785714,3.7704918 L48.0785714,13.9508197" id="Stroke-1478"></path>
                        <polyline id="Stroke-1479" points="47.0493871 1.39983279 24.2283443 19.6067836 1.37323 1.36363607"></polyline>
                    </g>
                </g>
            </g>
        </g>
    </g>
</svg>