
<svg width="24px" height="18px" viewBox="0 0 24 18" version="1.1" xmlns="http://www.w3.org/2000/svg" xmlns:xlink="http://www.w3.org/1999/xlink">
    <!-- Generator: Sketch 50.2 (55047) - http://www.bohemiancoding.com/sketch -->
    <desc>Created with Sketch.</desc>
    <defs></defs>
    <g id="FOOTER" stroke="none" stroke-width="1" fill="none" fill-rule="evenodd">
        <path d="M19.36125,0.75015 C21.5055,0.75015 23.25,2.53365 23.25,4.72515 L23.25,13.27515 C23.25,15.46665 21.5055,17.25015 19.36125,17.25015 L4.63875,17.25015 C2.4945,17.25015 0.75,15.46665 0.75,13.27515 L0.75,4.72515 C0.75,2.53365 2.4945,0.75015 4.63875,0.75015 L19.36125,0.75015 Z M21.75,13.27515 L21.75,4.72515 C21.75,3.36015 20.67825,2.25015 19.36125,2.25015 L4.63875,2.25015 C3.32175,2.25015 2.25,3.36015 2.25,4.72515 L2.25,13.27515 C2.25,14.6394 3.32175,15.75015 4.63875,15.75015 L19.36125,15.75015 C20.67825,15.75015 21.75,14.6394 21.75,13.27515 Z M15.6010333,8.5762588 C15.7859055,8.69983425 15.89775,8.91139004 15.89775,9.13772115 C15.89775,9.36338066 15.7859055,9.57426485 15.6010333,9.6985119 L10.1798669,13.3345851 C10.0699962,13.4084617 9.94433567,13.4454 9.81867514,13.4454 C9.71077814,13.4454 9.60353905,13.4185358 9.50616858,13.3641357 C9.29300622,13.2472763 9.1607666,13.0202736 9.1607666,12.7737943 L9.1607666,5.50164799 C9.1607666,5.2551687 9.29300622,5.02816598 9.50616858,4.91130659 C9.71867304,4.7937756 9.97723109,4.80384968 10.179209,4.94018564 L15.6010333,8.5762588 Z M10.4765837,11.5286374 L14.0411321,9.13772115 L10.4765837,6.74680492 L10.4765837,11.5286374 Z" id="shape" fill="#0064FE"></path>
    </g>
</svg>